<?xml version="1.0" encoding="utf-8"?>
<!-- Generator: Adobe Illustrator 25.0.1, SVG Export Plug-In . SVG Version: 6.00 Build 0)  -->
<svg version="1.0" id="Layer_1" xmlns="http://www.w3.org/2000/svg" xmlns:xlink="http://www.w3.org/1999/xlink" x="0px" y="0px"
	 viewBox="0 0 118.8 75.2" style="enable-background:new 0 0 118.8 75.2;" xml:space="preserve">
<style type="text/css">
	.st0{fill-rule:evenodd;clip-rule:evenodd;fill:url(#Logo_1_);}
</style>
<linearGradient id="Logo_1_" gradientUnits="userSpaceOnUse" x1="32.2099" y1="10.3679" x2="82.1589" y2="69.8947" gradientTransform="matrix(1 0 0 -1 0 77.3333)">
	<stop  offset="0" style="stop-color:#E14A55"/>
	<stop  offset="1" style="stop-color:#8E278F"/>
</linearGradient>
<path id="Logo_7_" class="st0" d="M101.8,34.4c-0.9,0.4-1.8,0.7-2.7,0.9l-1.6,0.4c-0.8,0.2-1.4,0.5-1.8,0.9c-0.3,0.5-0.5,1-0.5,1.5
	c0,0.6,0.2,1.2,0.6,1.7c0.4,0.4,1,0.6,1.8,0.6c1.3,0,2.3-0.4,3-1.1s1.1-1.8,1.1-3.1L101.8,34.4L101.8,34.4L101.8,34.4z M102.9,43
	c-1,0.5-2,0.8-3.1,0.9c-0.9,0.1-1.9,0.2-2.9,0.2c-1.6,0-3.1-0.5-4.3-1.4c-1.2-0.9-1.9-2.4-1.9-4.5c0-2,0.6-3.4,1.7-4.2
	s2.6-1.4,4.3-1.7c0.3,0,0.6,0,0.8-0.1c0.4-0.1,0.7-0.1,1.1-0.2c2-0.3,3-0.9,3-1.8c0-0.7-0.4-1.2-1.1-1.4c-0.6-0.2-1.3-0.3-2-0.3
	c-0.6,0-1.2,0.1-1.7,0.3c-0.5,0.2-0.9,0.6-1.1,1.1h-4.6c0.2-1.4,0.8-2.7,1.9-3.6c1.2-1.1,3-1.6,5.3-1.6c2.6,0,4.5,0.4,5.8,1.3
	s2,2.2,2,3.9v6.4c0,1.9-0.3,3.3-1,4.4C104.7,41.7,103.9,42.5,102.9,43z M80.4,43.8v-9c0-1.8,0.3-3.4,0.8-4.6c0.5-1.2,1.2-2.2,2.2-3
	c0.9-0.7,1.9-1.2,3.1-1.5c1.2-0.3,2.4-0.5,3.6-0.5h0.6v5h-1.6c-1.3,0-2.3,0.3-3,1c-0.6,0.7-1,1.7-1,3.1v9.6L80.4,43.8L80.4,43.8z
	 M75.2,34.4c-0.9,0.4-1.8,0.7-2.7,0.9l-1.6,0.4c-0.8,0.2-1.4,0.5-1.8,0.9c-0.3,0.5-0.5,1-0.5,1.5c0,0.6,0.2,1.2,0.6,1.7
	c0.4,0.4,1,0.6,1.8,0.6c1.3,0,2.3-0.4,3-1.1c0.7-0.7,1.1-1.8,1.1-3.1L75.2,34.4L75.2,34.4L75.2,34.4z M76.3,43c-1,0.5-2,0.8-3.1,0.9
	c-0.9,0.1-1.9,0.2-2.9,0.2c-1.6,0-3.1-0.5-4.3-1.4c-1.2-0.9-1.9-2.4-1.9-4.5c0-2,0.6-3.4,1.7-4.2c1.1-0.8,2.6-1.4,4.3-1.7
	c0.3,0,0.6,0,0.8-0.1c0.4-0.1,0.7-0.1,1.1-0.2c2-0.3,3-0.9,3-1.8c0-0.7-0.4-1.2-1.1-1.4c-0.6-0.2-1.3-0.3-2-0.3
	c-0.6,0-1.2,0.1-1.7,0.3c-0.5,0.2-0.9,0.6-1.1,1.1h-4.4c0.2-1.4,0.8-2.7,1.9-3.6c1.2-1.1,3-1.6,5.3-1.6c2.6,0,4.5,0.4,5.8,1.3
	c1.3,0.9,2,2.2,2,3.9v6.4c0,1.9-0.3,3.3-1,4.4C78.1,41.7,77.3,42.5,76.3,43L76.3,43z M59.1,34.5c0-1.8-0.3-3.2-1-4.2s-1.7-1.5-3-1.5
	c-1.2,0-2.2,0.5-2.9,1.5c-0.6,0.9-1,2.3-1,4.2c0,1.8,0.3,3.1,1,4c0.7,1,1.7,1.5,3,1.5c1.1,0,2.2-0.5,2.8-1.5
	C58.7,37.5,59.1,36.2,59.1,34.5L59.1,34.5z M51.2,48.2c0,0.6-0.2,1.2-0.7,1.7c-0.4,0.5-1,0.7-1.7,0.7h-2.3V33.2
	c0-3.3,0.9-5.5,2.8-6.7c1.8-1.2,4-1.8,6.1-1.8c1.2,0,2.4,0.2,3.5,0.7c1.1,0.4,2,1,2.8,1.9c1.4,1.8,2.1,4.2,2.1,7
	c0,2.9-0.7,5.3-2.1,7.1c-1.4,1.8-3.1,2.7-5.3,2.7c-1,0-2.1-0.2-3-0.6c-0.9-0.5-1.7-1.2-2.2-2.2L51.2,48.2L51.2,48.2L51.2,48.2z
	 M41.4,34.4c-0.9,0.4-1.8,0.7-2.7,0.9l-1.6,0.3c-0.8,0.2-1.4,0.5-1.8,0.9c-0.3,0.5-0.5,1-0.5,1.5c0,0.6,0.2,1.2,0.6,1.7
	c0.4,0.4,1,0.6,1.8,0.6c1.3,0,2.3-0.4,3-1.1c0.7-0.7,1.1-1.8,1.1-3.1L41.4,34.4L41.4,34.4z M42.5,43c-1,0.5-2,0.8-3.1,0.9
	c-0.9,0.1-1.9,0.2-2.9,0.2c-1.6,0-3.1-0.5-4.3-1.4c-1.2-0.9-1.9-2.4-1.9-4.5c0-2,0.6-3.4,1.7-4.2c1.1-0.8,2.6-1.4,4.3-1.7
	c0.3,0,0.6,0,0.8-0.1c0.3-0.1,0.7-0.1,1.1-0.2c2-0.3,3-0.9,3-1.8c0-0.7-0.4-1.2-1.1-1.4c-0.6-0.2-1.3-0.3-2-0.3
	c-0.6,0-1.2,0.1-1.7,0.3c-0.5,0.2-0.9,0.6-1.1,1.1h-4.6c0.2-1.4,0.8-2.7,1.9-3.6c1.2-1.1,3-1.6,5.3-1.6c2.6,0,4.5,0.4,5.8,1.3
	s2,2.2,2,3.9v6.4c0,1.9-0.3,3.3-1,4.4C44.3,41.7,43.5,42.5,42.5,43L42.5,43z M17.4,48.2c0,0.6-0.2,1.2-0.7,1.7
	c-0.4,0.5-1,0.7-1.7,0.7h-2.3V33.2c0-3.3,0.9-5.5,2.8-6.7c1.8-1.2,4-1.8,6.1-1.8c1.2,0,2.4,0.2,3.5,0.7c1.1,0.4,2,1,2.8,1.9
	c1.4,1.8,2.1,4.2,2.1,7c0,2.9-0.7,5.3-2.1,7.1c-1.4,1.8-3.1,2.7-5.3,2.7c-1,0-2.1-0.2-3-0.6c-0.9-0.5-1.7-1.2-2.2-2.2L17.4,48.2
	L17.4,48.2z M25.2,34.5c0-1.8-0.3-3.2-1-4.2c-0.7-1-1.7-1.5-3-1.5c-1.2,0-2.2,0.5-2.9,1.5c-0.6,0.9-1,2.3-1,4.2c0,1.8,0.3,3.1,1,4
	c0.7,1,1.7,1.5,3,1.5c1.1,0,2.2-0.5,2.8-1.5C24.9,37.5,25.2,36.2,25.2,34.5L25.2,34.5z"/>
</svg>
